<?xml version="1.0" encoding="UTF-8" standalone="no"?>
<svg
   xmlns:dc="http://purl.org/dc/elements/1.1/"
   xmlns:cc="http://creativecommons.org/ns#"
   xmlns:rdf="http://www.w3.org/1999/02/22-rdf-syntax-ns#"
   xmlns:svg="http://www.w3.org/2000/svg"
   xmlns="http://www.w3.org/2000/svg"
   width="256"
   height="256"
   viewBox="0 0 204.8 204.8">
    <g
     id="g4"
     transform="translate(0,-51.2)">
    <path
       style="fill:#000000;fill-opacity:1;fill-rule:nonzero;stroke:none"
       d="m 63.088937,51.200097 98.445313,0 c 8.88281,0 26.8789,11.22232 26.8789,20.39024 l 0,83.544003 c 0,1.86664 -1.04687,3.59055 -2.73047,4.49194 -19.63671,10.54253 -29.5664,29.26895 -39.93749,58.01583 l 0,27.5488 c 0,0.93143 -0.25391,1.84409 -0.75391,2.64408 -3.24609,5.19051 -8.85547,8.16511 -15.39453,8.16511 -8.41406,0 -17.26953,-4.89005 -23.6914,-13.03638 -6.472663,-8.25525 -15.710943,-26.47839 -8.082043,-58.41771 l -44.9414,0 c -10.00391,0 -32.14904,-9.36167 -32.14904,-25.65058 0,-5.36328 3.37203,-14.08953 6.92281,-18.87818 -15.04558,-8.3397 -10.37847,-26.29632 4.17697,-29.93458 -13.15811,-23.534463 1.70887,-27.021283 9.98557,-30.767523 -11.1401,-19.61274 3.83239,-28.14894 21.27072,-28.11505 z" />
  </g>
</svg>
