<?xml version="1.0" encoding="UTF-8" standalone="no"?>
<svg
   xmlns:dc="http://purl.org/dc/elements/1.1/"
   xmlns:cc="http://creativecommons.org/ns#"
   xmlns:rdf="http://www.w3.org/1999/02/22-rdf-syntax-ns#"
   xmlns:svg="http://www.w3.org/2000/svg"
   xmlns="http://www.w3.org/2000/svg"
   width="256"
   height="256"
   viewBox="0 0 204.8 204.8">
  <g
     transform="translate(0,-51.2)">
    <path
       style="fill:#ffd700;fill-opacity:1;fill-rule:nonzero;stroke:none"
       d="m 143.72422,256 -98.445312,0 C 36.396098,256 18.4,244.77768 18.4,235.60976 l 0,-83.544 c 0,-1.86664 1.046876,-3.59055 2.730469,-4.49194 19.636719,-10.54253 29.566409,-29.26895 39.937499,-58.015837 l 0,-27.548791 c 0,-0.931438 0.25391,-1.844098 0.75391,-2.644083 C 65.067968,54.174593 70.677348,51.2 77.216408,51.2 c 8.41406,0 17.26953,4.890052 23.691402,13.036381 6.47266,8.255248 15.71094,26.478387 8.08204,58.417709 l 44.9414,0 c 10.00391,0 32.14904,9.36167 32.14904,25.65058 0,5.36328 -3.37203,14.08953 -6.92281,18.87818 15.04558,8.3397 10.37847,26.29632 -4.17697,29.93458 13.15811,23.53446 -1.70887,27.02128 -9.98557,30.76752 11.1401,19.61274 -3.83239,28.14894 -21.27072,28.11505 z" />
  </g>
</svg>
