<?xml version="1.0" encoding="UTF-8" standalone="no"?>
<svg
   xmlns="http://www.w3.org/2000/svg"
   height="42.728371"
   width="50">
  <path
     d="M 21.15625 3.09375 C 20.635417 3.09375 20.193109 3.2756433 19.8125 3.65625 L 9.78125 13.6875 L 1.9375 13.6875 C 1.4166667 13.6875 0.94310896 13.869393 0.5625 14.25 C 0.18189103 14.630613 0 15.072917 0 15.59375 L 0 27.125 C 0 27.645833 0.18189103 28.119393 0.5625 28.5 C 0.94310896 28.880607 1.4166667 29.0625 1.9375 29.0625 L 9.78125 29.0625 L 19.8125 39.0625 C 20.193109 39.443113 20.635417 39.625 21.15625 39.625 C 21.677083 39.625 22.119391 39.443113 22.5 39.0625 C 22.880609 38.681893 23.0625 38.239583 23.0625 37.71875 L 23.0625 5.03125 C 23.0625 4.5104167 22.880609 4.0368567 22.5 3.65625 C 22.119391 3.2756433 21.677083 3.09375 21.15625 3.09375 z M 29.21875 14.15625 C 28.697917 14.15625 28.224359 14.348157 27.84375 14.71875 C 27.463141 15.089343 27.28125 15.521633 27.28125 16.0625 C 27.28125 16.483173 27.415865 16.86579 27.65625 17.15625 C 27.896635 17.446717 28.159455 17.695917 28.5 17.90625 C 28.840545 18.11659 29.190705 18.34335 29.53125 18.59375 C 29.871795 18.84415 30.165865 19.19551 30.40625 19.65625 C 30.646635 20.116983 30.78125 20.693907 30.78125 21.375 C 30.78125 22.056087 30.646635 22.60176 30.40625 23.0625 C 30.165865 23.523233 29.871795 23.90585 29.53125 24.15625 C 29.190705 24.406657 28.840545 24.633417 28.5 24.84375 C 28.159455 25.054083 27.896635 25.303283 27.65625 25.59375 C 27.415865 25.884217 27.28125 26.235577 27.28125 26.65625 C 27.28125 27.197117 27.463141 27.660657 27.84375 28.03125 C 28.224359 28.401843 28.697917 28.5625 29.21875 28.5625 C 29.519231 28.5625 29.768429 28.53766 29.96875 28.4375 C 31.370993 27.8766 32.492388 26.9371 33.34375 25.625 C 34.195113 24.3129 34.625 22.897433 34.625 21.375 C 34.625 19.85256 34.195113 18.415863 33.34375 17.09375 C 32.492388 15.771637 31.370993 14.853367 29.96875 14.3125 C 29.768429 14.21234 29.519231 14.15625 29.21875 14.15625 z M 37.65625 17.21875 C 37.67547 17.261214 37.700079 17.301143 37.71875 17.34375 C 37.721266 17.322587 37.716116 17.302924 37.71875 17.28125 C 37.714332 17.278088 37.723233 17.253225 37.71875 17.25 C 37.706622 17.245278 37.700533 17.221337 37.6875 17.21875 C 37.680372 17.213594 37.663596 17.224059 37.65625 17.21875 z " />
</svg>
