<?xml version="1.0" encoding="UTF-8" standalone="no"?>
<svg
   xmlns="http://www.w3.org/2000/svg"
   height="42.728371"
   width="50">
  <path
     d="m 23.076923,5.01803 v 32.69231 q 0,0.78125 -0.570913,1.35216 -0.570914,0.57092 -1.352164,0.57092 -0.78125,0 -1.352163,-0.57092 L 9.7956731,29.05649 H 1.9230769 q -0.78125,0 -1.35216344,-0.57091 Q 0,27.91467 0,27.13342 V 15.59496 Q 0,14.81371 0.57091346,14.24279 1.1418269,13.67188 1.9230769,13.67188 H 9.7956731 L 19.801683,3.66587 q 0.570913,-0.57091 1.352163,-0.57091 0.78125,0 1.352164,0.57091 0.570913,0.57091 0.570913,1.35216 z m 11.538462,16.34616 q 0,2.28365 -1.277044,4.2518 -1.277043,1.96815 -3.380408,2.8095 -0.300481,0.15024 -0.751202,0.15024 -0.78125,0 -1.352164,-0.55589 -0.570913,-0.55589 -0.570913,-1.36719 0,-0.63101 0.360577,-1.06671 0.360577,-0.4357 0.871394,-0.7512 0.510817,-0.3155 1.021635,-0.69111 0.510817,-0.3756 0.871394,-1.0667 0.360577,-0.69111 0.360577,-1.71274 0,-1.02164 -0.360577,-1.71274 -0.360577,-0.69111 -0.871394,-1.06671 -0.510818,-0.3756 -1.021635,-0.69111 -0.510817,-0.3155 -0.871394,-0.7512 -0.360577,-0.43569 -0.360577,-1.0667 0,-0.8113 0.570913,-1.36719 0.570914,-0.55589 1.352164,-0.55589 0.450721,0 0.751202,0.15024 2.103365,0.8113 3.380408,2.79447 1.277044,1.98317 1.277044,4.26683 z m 7.692307,0 q 0,4.59735 -2.554086,8.48858 -2.554087,3.89122 -6.760818,5.66406 -0.390625,0.15024 -0.751201,0.15024 -0.811299,0 -1.382212,-0.57091 -0.570913,-0.57092 -0.570913,-1.35217 0,-1.17187 1.171875,-1.77283 1.682692,-0.8714 2.283653,-1.32212 2.223558,-1.62259 3.470553,-4.07151 1.246995,-2.44892 1.246995,-5.21334 0,-2.76443 -1.246995,-5.21334 -1.246995,-2.44892 -3.470553,-4.07152 -0.600961,-0.45072 -2.283653,-1.32211 -1.171875,-0.60097 -1.171875,-1.77284 0,-0.78125 0.570913,-1.35216 0.570913,-0.57092 1.352163,-0.57092 0.390625,0 0.78125,0.15024 4.206731,1.77284 6.760818,5.66407 2.554086,3.89122 2.554086,8.48858 z m 7.692308,0 q 0,6.91105 -3.816106,12.69531 -3.816106,5.78425 -10.15625,8.51863 -0.390625,0.15024 -0.78125,0.15024 -0.78125,0 -1.352163,-0.57091 -0.570914,-0.57092 -0.570914,-1.35217 0,-1.08173 1.171875,-1.77283 0.210337,-0.1202 0.676082,-0.31551 0.465745,-0.19531 0.676082,-0.3155 1.382211,-0.75121 2.463942,-1.53246 3.695914,-2.73437 5.769231,-6.82091 2.073317,-4.08654 2.073317,-8.68389 0,-4.59736 -2.073317,-8.6839 Q 42.007212,8.59375 38.311298,5.85938 37.229567,5.07813 35.847356,4.32693 35.637019,4.20674 35.171274,4.01142 34.705529,3.81611 34.495192,3.69592 33.323317,3.00481 33.323317,1.92308 q 0,-0.78125 0.570914,-1.35216 Q 34.465144,0 35.246394,0 q 0.390625,0 0.78125,0.15024 6.340144,2.73438 10.15625,8.51863 Q 50,14.45313 50,21.36419 z" />
</svg>
